<?xml version="1.0" standalone="no"?>
<!DOCTYPE svg PUBLIC "-//W3C//DTD SVG 20010904//EN"
 "http://www.w3.org/TR/2001/REC-SVG-20010904/DTD/svg10.dtd">
<svg version="1.0" xmlns="http://www.w3.org/2000/svg"
 width="600.000000pt" height="528.000000pt" viewBox="0 0 600.000000 528.000000"
 preserveAspectRatio="xMidYMid meet">
<g transform="translate(0.000000,528.000000) scale(0.100000,-0.100000)"
fill="#000000" stroke="none">
<path d="M2768 5070 c-49 -14 -106 -21 -205 -23 -113 -3 -162 -10 -273 -36
-74 -18 -146 -33 -160 -32 -60 3 -289 -74 -455 -152 -376 -176 -418 -198 -483
-245 -37 -26 -90 -61 -118 -76 -75 -40 -118 -79 -150 -133 -15 -27 -56 -85
-91 -131 -35 -45 -63 -88 -63 -96 0 -7 -16 -35 -35 -62 -19 -27 -56 -103 -82
-169 -43 -110 -52 -125 -113 -185 -36 -36 -90 -86 -122 -112 -63 -53 -140
-163 -174 -247 -13 -33 -24 -88 -27 -136 -4 -60 -14 -102 -41 -167 -38 -92
-35 -76 -67 -443 -12 -144 -7 -246 21 -410 11 -60 29 -162 40 -225 12 -70 35
-154 60 -215 21 -55 46 -126 55 -158 16 -59 17 -60 220 -278 28 -30 80 -76
117 -104 36 -27 72 -60 80 -72 22 -36 87 -82 147 -103 31 -12 76 -39 101 -62
73 -66 122 -104 166 -128 38 -20 46 -21 90 -11 155 37 228 12 379 -129 180
-168 266 -210 445 -221 83 -4 139 -14 200 -33 l85 -27 285 4 c208 4 303 9 351
21 197 46 488 130 537 155 31 17 89 40 127 52 83 26 141 64 185 119 17 22 60
67 96 101 69 67 110 136 99 169 -12 38 -41 19 -151 -100 -160 -171 -175 -184
-244 -210 -36 -13 -97 -41 -136 -62 -48 -26 -127 -53 -245 -84 -338 -90 -311
-87 -639 -88 l-295 -1 -80 28 c-66 22 -97 27 -170 26 -55 0 -106 5 -131 14
-76 28 -216 106 -191 107 5 0 28 -11 51 -25 23 -14 63 -28 88 -31 50 -7 90 9
193 80 59 40 62 41 156 44 59 2 105 -1 118 -7 15 -8 21 -8 21 -1 0 6 6 10 14
8 8 -2 16 2 18 7 4 12 -171 27 -222 19 -19 -3 -75 -29 -125 -58 -49 -29 -100
-56 -112 -59 -13 -3 -62 3 -110 14 -47 10 -89 17 -91 14 -3 -3 -48 37 -101 88
-53 51 -109 98 -126 104 -120 44 -148 59 -174 89 -31 35 -50 99 -34 115 6 6
30 5 63 -1 59 -11 70 -8 54 18 -8 12 -29 19 -71 22 -54 4 -63 9 -89 40 -15 19
-50 59 -77 87 -79 87 -90 121 -85 284 2 75 0 135 -4 133 -16 -10 -30 -117 -26
-195 6 -103 25 -143 111 -238 34 -37 70 -82 80 -99 l18 -31 -32 -17 c-52 -26
-128 -15 -191 29 -29 20 -54 34 -56 32 -10 -9 29 -54 65 -76 48 -30 159 -34
189 -7 18 16 19 15 20 -34 0 -45 5 -55 36 -84 l36 -32 -79 -7 c-73 -7 -82 -5
-121 18 -24 14 -73 52 -110 85 -37 33 -91 71 -120 84 -125 58 -166 132 -155
280 7 84 -2 98 -38 58 -15 -16 -17 -32 -13 -100 3 -44 3 -80 2 -80 -19 0 -111
81 -172 151 -42 49 -79 89 -84 89 -17 0 -69 93 -87 156 -10 38 -33 101 -49
139 -21 49 -43 138 -72 300 -38 204 -43 247 -43 380 0 83 8 227 17 320 16 149
22 180 53 255 27 66 37 105 42 176 6 75 14 104 46 172 39 85 69 118 227 254
75 65 120 128 144 202 24 71 126 272 166 325 18 24 60 82 93 129 50 70 71 91
125 123 36 20 98 61 138 89 69 49 128 79 417 213 203 93 316 127 671 201 133
28 195 36 275 36 71 0 127 6 174 19 107 29 141 32 252 22 91 -8 116 -15 230
-64 210 -90 207 -89 418 -97 157 -6 200 -11 250 -29 89 -32 188 -95 269 -170
39 -37 103 -92 143 -124 40 -31 84 -72 98 -91 21 -28 49 -42 180 -91 183 -68
230 -96 282 -165 21 -28 67 -73 103 -99 57 -42 71 -59 108 -133 24 -47 68
-116 97 -154 56 -71 141 -212 165 -274 8 -19 23 -51 34 -70 106 -185 190 -420
270 -760 40 -168 47 -209 46 -300 0 -77 5 -122 20 -170 21 -68 26 -140 11
-140 -5 0 -16 11 -24 24 -9 13 -41 50 -73 82 -68 71 -109 155 -128 267 -13 71
-25 96 -48 97 -10 0 -10 -8 2 -50 5 -19 14 -70 20 -114 10 -81 43 -151 96
-205 73 -73 101 -142 124 -306 13 -91 16 -104 29 -138 6 -16 11 -47 11 -70 0
-28 8 -55 23 -77 29 -43 51 -122 44 -151 -3 -12 0 -36 6 -53 7 -17 11 -41 9
-53 -3 -21 -4 -21 -40 -6 -21 9 -78 18 -130 20 -83 4 -98 2 -147 -21 -35 -16
-62 -36 -72 -54 -17 -29 -17 -29 -52 -15 -24 10 -51 13 -84 9 l-49 -7 7 29 c6
28 4 30 -70 62 -52 24 -75 39 -75 51 0 24 -44 74 -58 66 -6 -5 1 -19 20 -38
17 -16 29 -32 26 -34 -2 -2 -26 3 -53 11 -151 46 -389 18 -470 -55 -12 -11
-42 -21 -75 -24 -30 -3 -95 -18 -145 -34 l-89 -29 -31 40 c-16 21 -47 48 -68
59 -38 20 -39 20 -65 0 -31 -23 -50 -82 -51 -159 -1 -62 -26 -94 -36 -47 -11
48 -15 54 -26 48 -6 -4 -8 -23 -5 -46 3 -22 1 -39 -4 -39 -20 0 -9 -19 12 -22
18 -2 24 -12 29 -40 3 -20 29 -75 58 -122 72 -118 81 -153 81 -326 0 -124 -3
-152 -21 -189 -11 -25 -24 -74 -29 -109 -5 -36 -13 -68 -18 -71 -5 -3 -25 -35
-43 -70 -45 -86 -133 -163 -192 -169 -74 -6 -53 -12 47 -11 63 0 94 4 90 11
-3 5 -17 8 -30 5 -28 -5 -33 9 -6 17 20 7 102 84 102 96 0 5 16 36 36 70 22
39 39 83 45 123 5 34 17 78 27 97 14 29 17 64 17 200 0 91 -4 178 -9 194 -9
29 -9 29 15 13 64 -45 149 14 149 103 0 45 -23 33 -31 -15 -7 -43 -39 -75 -73
-75 -27 0 -77 51 -105 107 -61 121 -68 373 -12 407 31 19 122 -71 136 -135 9
-39 29 -26 21 15 -4 24 -3 28 6 15 10 -14 16 -14 72 2 54 14 71 15 130 4 37
-7 69 -14 70 -16 2 -2 10 -16 17 -30 20 -37 79 -86 132 -109 58 -26 184 -34
307 -20 147 17 156 22 242 129 8 9 29 12 74 9 67 -4 88 -13 64 -28 -11 -7 -12
-14 -2 -34 10 -23 9 -29 -8 -46 -25 -25 -26 -77 -3 -125 9 -19 20 -35 23 -35
4 0 26 -22 49 -50 l42 -50 -31 -57 c-16 -32 -30 -63 -30 -70 0 -8 -7 -8 -30 0
-22 8 -33 8 -41 0 -9 -9 -2 -16 27 -28 44 -19 67 -11 72 25 2 13 14 39 27 59
44 66 42 82 -13 137 -27 27 -56 63 -65 80 -16 32 -33 104 -24 104 4 0 22 -11
42 -24 45 -31 101 -40 208 -34 83 5 131 21 172 59 37 33 49 11 53 -100 4 -89
2 -105 -17 -136 -11 -20 -21 -43 -21 -52 0 -8 -8 -27 -19 -41 -10 -15 -35 -60
-55 -101 -20 -41 -44 -84 -55 -95 -22 -24 -41 -86 -41 -134 0 -26 -11 -44 -54
-88 -30 -30 -58 -64 -61 -75 -6 -19 -30 -34 -133 -84 -47 -22 -65 -25 -173
-25 -110 0 -126 3 -199 31 -69 26 -93 43 -187 129 -60 55 -113 100 -119 100
-19 0 -203 180 -221 214 -9 17 -26 44 -39 59 -16 19 -24 41 -24 67 0 22 -10
58 -21 80 -19 36 -21 50 -14 122 5 64 4 79 -7 76 -31 -11 -37 -156 -8 -213 11
-22 20 -54 20 -72 0 -66 180 -281 300 -358 19 -13 69 -55 110 -94 127 -121
234 -171 368 -171 70 0 72 -1 72 -25 0 -14 9 -43 19 -64 20 -38 20 -38 97 -44
93 -8 410 -9 402 -2 -3 4 -91 10 -194 15 -273 14 -257 12 -276 40 -10 14 -18
37 -18 53 0 24 4 27 34 27 18 0 64 15 102 34 38 18 77 36 86 39 9 3 28 23 41
45 14 21 47 60 75 87 46 47 50 54 56 114 3 36 14 75 24 89 34 48 89 151 161
301 11 24 16 62 16 120 0 110 -8 152 -34 189 -26 37 -28 62 -3 55 26 -6 59 33
46 55 -6 9 -20 18 -30 20 -17 3 -19 13 -21 90 -1 107 -19 185 -52 236 -20 31
-27 55 -29 111 -4 64 -2 74 21 101 19 22 28 50 36 108 20 139 14 226 -18 321
-24 68 -31 109 -36 207 -4 68 -14 150 -22 183 -26 105 -132 445 -179 575 -51
141 -194 432 -261 530 -190 281 -212 307 -308 380 -45 33 -106 91 -138 130
-59 72 -121 113 -188 124 -18 3 -52 8 -74 11 -34 6 -54 21 -131 98 -50 51
-115 111 -145 135 -30 23 -84 68 -120 100 -83 72 -224 146 -325 172 -60 16
-111 20 -228 20 -166 0 -198 8 -391 93 -156 69 -372 94 -497 57z m-8 -40 c-8
-5 -19 -10 -25 -10 -5 0 -3 5 5 10 8 5 20 10 25 10 6 0 3 -5 -5 -10z m-290
-20 c0 -5 -7 -10 -16 -10 -8 0 -12 5 -9 10 3 6 10 10 16 10 5 0 9 -4 9 -10z
m-60 -10 c12 -8 11 -10 -7 -10 -12 0 -30 -3 -40 -6 -16 -6 -16 -5 2 9 24 19
26 20 45 7z m-100 -20 c0 -5 -12 -10 -27 -9 -25 0 -26 1 -8 9 27 12 35 12 35
0z m-105 -30 c3 -6 -1 -7 -9 -4 -18 7 -21 14 -7 14 6 0 13 -4 16 -10z m-63
-11 c-44 -17 -71 -19 -65 -3 3 9 20 14 47 13 35 0 38 -2 18 -10z m-112 -24
c-33 -19 -50 -18 -26 0 11 8 27 15 35 15 10 -1 7 -6 -9 -15z m-62 -15 c-9 -6
-43 -18 -77 -29 -48 -15 -61 -16 -65 -5 -3 7 0 11 7 9 7 -2 35 4 62 14 57 21
102 27 73 11z m-188 -65 c0 -2 -10 -9 -22 -15 -22 -11 -22 -10 -4 4 21 17 26
19 26 11z m-114 -50 c-11 -8 -25 -15 -30 -15 -6 1 0 7 14 15 32 19 40 18 16 0z
m-133 -60 c-3 -9 -8 -14 -10 -11 -3 3 -2 9 2 15 9 16 15 13 8 -4z m2677 -33
c10 -12 20 -19 24 -17 3 3 4 2 2 -1 -3 -3 7 -16 21 -28 19 -17 22 -23 10 -23
-9 0 -15 3 -14 6 2 8 -64 76 -74 76 -4 0 -10 3 -14 7 -4 3 1 5 11 4 9 -1 25
-12 34 -24z m96 -91 c0 -16 -3 -17 -14 -9 -12 10 -7 19 13 28 1 0 1 -9 1 -19z
m-3046 -15 c0 -2 -7 -9 -15 -16 -13 -11 -14 -10 -9 4 5 14 24 23 24 12z m3078
-21 c-3 -3 -9 2 -12 12 -6 14 -5 15 5 6 7 -7 10 -15 7 -18z m62 -47 c0 -5 4
-7 8 -5 11 3 71 -61 64 -68 -9 -9 -23 -5 -17 5 3 6 2 10 -4 10 -5 0 -13 9 -16
20 -4 11 -10 18 -15 15 -8 -5 -60 57 -60 72 0 10 39 -39 40 -49z m-3254 -17
c-6 -9 -46 -22 -46 -15 0 3 10 9 23 14 29 11 29 11 23 1z m-106 -54 c0 -2 -9
-12 -19 -21 -14 -13 -21 -14 -27 -5 -4 7 -3 10 3 6 6 -4 16 0 23 8 12 14 20
19 20 12z m-85 -107 c-3 -5 -12 -10 -18 -10 -7 0 -6 4 3 10 19 12 23 12 15 0z
m-175 -257 c-1 -5 -12 -21 -26 -38 -14 -16 -24 -23 -22 -16 2 8 12 25 23 37
22 25 25 27 25 17z m-68 -117 c-9 -19 -18 -30 -20 -26 -3 8 26 60 34 60 2 0
-4 -15 -14 -34z m4448 -47 c6 -10 7 -19 3 -19 -4 0 -13 11 -20 25 -13 29 2 24
17 -6z m-4489 -46 c-12 -20 -14 -14 -5 12 4 9 9 14 11 11 3 -2 0 -13 -6 -23z
m4535 -20 c-7 -7 -21 -4 -21 5 0 4 -4 14 -9 22 -6 9 -1 7 12 -4 12 -11 20 -21
18 -23z m-4545 -30 c-12 -20 -14 -14 -5 12 4 9 9 14 11 11 3 -2 0 -13 -6 -23z
m4592 -35 c-2 -5 -1 -8 4 -8 4 0 13 -11 20 -25 17 -37 9 -31 -32 26 -30 42
-32 48 -12 32 14 -10 23 -21 20 -25z m-4613 -2 c0 -3 -4 -8 -10 -11 -5 -3 -10
-1 -10 4 0 6 5 11 10 11 6 0 10 -2 10 -4z m4710 -150 c0 -5 -1 -7 -3 -5 -2 2
-15 22 -31 44 l-27 40 30 -35 c17 -19 31 -39 31 -44z m-4855 4 c-3 -5 -12 -10
-18 -10 -7 0 -6 4 3 10 19 12 23 12 15 0z m-135 -143 c0 -2 -10 -12 -22 -23
l-23 -19 19 23 c18 21 26 27 26 19z m5075 -27 c-3 -6 1 -17 9 -26 9 -9 14 -19
11 -24 -3 -4 2 -10 10 -14 8 -3 15 -10 15 -16 0 -17 -31 17 -52 56 -16 30 -16
34 -2 34 8 0 12 -5 9 -10z m-5105 -23 c0 -2 -10 -12 -21 -23 -22 -19 -22 -19
-8 4 12 19 29 30 29 19z m-40 -81 c0 -2 -7 -9 -15 -16 -13 -11 -14 -10 -9 4 5
14 24 23 24 12z m5208 -41 c-3 -3 -9 2 -12 12 -6 14 -5 15 5 6 7 -7 10 -15 7
-18z m-5218 -1 c0 -8 -19 -13 -24 -6 -3 5 1 9 9 9 8 0 15 -2 15 -3z m-23 -56
c-3 -7 -5 -2 -5 12 0 14 2 19 5 13 2 -7 2 -19 0 -25z m-3 -62 c3 -16 2 -25 -1
-22 -4 4 -9 19 -11 34 -4 35 5 25 12 -12z m0 -71 c-4 -8 -11 -12 -16 -9 -6 4
-5 10 3 15 19 12 19 11 13 -6z m-30 -60 c-8 -12 -11 -25 -7 -30 5 -4 2 -5 -6
0 -11 6 -13 3 -8 -15 4 -17 3 -20 -6 -11 -8 8 -7 18 6 40 9 15 14 30 12 33 -3
3 1 5 9 5 12 0 12 -3 0 -22z m-50 -159 c-3 -15 -8 -25 -11 -23 -2 3 -1 17 3
31 3 15 8 25 11 23 2 -3 1 -17 -3 -31z m-4 -70 c0 -3 -4 -8 -10 -11 -5 -3 -10
-1 -10 4 0 6 5 11 10 11 6 0 10 -2 10 -4z m-9 -59 c-8 -8 -11 -7 -11 4 0 20
13 34 18 19 3 -7 -1 -17 -7 -23z m5516 8 c0 -8 -4 -12 -9 -9 -5 3 -6 10 -3 15
9 13 12 11 12 -6z m-5520 -72 c-3 -10 -5 -4 -5 12 0 17 2 24 5 18 2 -7 2 -21
0 -30z m5548 -22 c-1 -14 4 -37 12 -51 l15 -25 -21 24 c-13 14 -19 31 -16 42
3 9 1 20 -4 23 -6 4 -7 14 -4 22 9 23 22 -2 18 -35z m-5564 -64 c-10 -9 -11
-8 -5 6 3 10 9 15 12 12 3 -3 0 -11 -7 -18z m2 -32 c-3 -9 -8 -14 -10 -11 -3
3 -2 9 2 15 9 16 15 13 8 -4z m5594 -24 l2 -36 -14 34 c-18 40 -18 38 -2 38 7
0 13 -15 14 -36z m-5587 -156 c0 -33 -15 -33 -16 0 -1 14 2 25 7 25 5 0 9 -11
9 -25z m5640 -200 c24 -61 26 -101 16 -225 -9 -112 -17 -144 -40 -168 l-23
-23 -3 58 c-1 32 -3 68 -3 80 -1 12 -5 19 -9 17 -4 -3 -8 5 -9 18 -1 39 -9 71
-20 85 -15 17 12 18 30 1 10 -11 16 -8 32 11 26 32 25 57 -6 161 -1 3 -5 12
-8 20 -10 21 -15 102 -8 120 3 8 10 -10 17 -40 6 -30 22 -82 34 -115z m-5643
123 c-3 -8 -6 -5 -6 6 -1 11 2 17 5 13 3 -3 4 -12 1 -19z m29 -145 c1 -10 3
-23 5 -29 2 -7 0 -14 -5 -15 -10 -4 -17 40 -9 54 6 11 9 9 9 -10z m17 -103 c3
-11 1 -18 -4 -14 -5 3 -9 12 -9 20 0 20 7 17 13 -6z m17 -95 c14 -19 14 -19
-2 -6 -10 7 -18 18 -18 24 0 6 1 8 3 6 1 -2 9 -13 17 -24z m5 -56 c-5 -16 -4
-19 5 -14 8 5 11 4 7 -2 -4 -6 -2 -25 3 -43 12 -43 0 -30 -16 16 -7 20 -10 43
-7 50 8 22 15 16 8 -7z m26 -116 c13 -16 12 -17 -3 -4 -10 7 -18 15 -18 17 0
8 8 3 21 -13z m33 -48 c3 -8 0 -17 -6 -21 -7 -4 -8 -3 -4 4 4 7 3 12 -2 12 -6
0 -12 7 -15 14 -4 10 -1 13 8 10 7 -3 16 -12 19 -19z m23 -51 c-3 -3 -2 -17 3
-30 5 -13 7 -24 4 -24 -2 0 -8 10 -13 23 -8 22 -6 37 6 37 4 0 4 -3 0 -6z m47
-155 c-3 -5 -10 -7 -15 -3 -5 3 -7 10 -3 15 3 5 10 7 15 3 5 -3 7 -10 3 -15z
m26 -44 c19 -22 8 -25 -12 -3 -10 10 -14 18 -9 18 5 0 14 -7 21 -15z m68 -80
c-3 -3 -9 2 -12 12 -6 14 -5 15 5 6 7 -7 10 -15 7 -18z m36 -31 c3 -8 2 -12
-4 -9 -6 3 -10 10 -10 16 0 14 7 11 14 -7z m4556 -42 c31 -7 36 -12 41 -45 8
-49 -10 -115 -33 -123 -10 -3 -18 -10 -18 -15 0 -6 5 -7 10 -4 15 9 12 -8 -5
-31 -20 -27 -18 -40 3 -20 11 9 31 41 46 71 22 41 27 65 24 100 -4 52 7 57 59
26 20 -13 34 -31 38 -51 7 -30 3 -43 -25 -100 -4 -8 -33 -28 -65 -45 -49 -25
-72 -31 -146 -33 -183 -8 -329 54 -329 139 0 11 7 22 15 25 8 4 15 17 15 29 0
26 38 57 97 80 39 16 197 14 273 -3z m-4470 -48 c0 -2 -9 0 -20 6 -11 6 -20
13 -20 16 0 2 9 0 20 -6 11 -6 20 -13 20 -16z m4079 4 c-8 -15 -14 -18 -17
-10 -3 10 -7 10 -20 0 -15 -12 -16 -11 -3 4 7 10 17 15 22 12 5 -3 9 0 9 5 0
6 5 11 10 11 7 0 6 -8 -1 -22z m586 -17 c3 -5 2 -12 -3 -15 -5 -3 -9 1 -9 9 0
17 3 19 12 6z m435 1 c0 -4 -33 -14 -72 -21 -40 -7 -84 -15 -98 -17 -24 -5
-24 -5 3 11 44 25 167 45 167 27z m141 -21 c13 -11 22 -22 19 -25 -3 -3 -19 6
-35 19 -17 13 -25 24 -19 25 7 0 22 -9 35 -19z m-1286 -1 c-3 -5 -23 -10 -43
-9 -30 0 -33 2 -17 9 28 12 67 12 60 0z m75 0 c0 -5 -12 -10 -26 -10 -14 0
-23 4 -19 10 3 6 15 10 26 10 10 0 19 -4 19 -10z m30 0 c0 -5 -4 -10 -10 -10
-5 0 -10 5 -10 10 0 6 5 10 10 10 6 0 10 -4 10 -10z m1036 -9 c-4 -5 -2 -21 3
-34 8 -20 6 -27 -7 -33 -9 -4 -21 -6 -26 -5 -4 1 -14 -4 -22 -10 -11 -9 -14
-8 -15 7 -1 11 -3 29 -4 40 -2 17 2 20 18 16 13 -3 18 -1 13 6 -4 8 -2 10 7 6
8 -3 18 -1 22 5 3 6 8 11 11 11 3 0 3 -4 0 -9z m119 -26 c41 -41 45 -74 15
-123 -18 -29 -54 -52 -80 -52 -5 0 2 19 15 43 28 48 32 99 11 140 -20 37 -4
34 39 -8z m-535 -1 c0 -8 -4 -12 -10 -9 -5 3 -10 13 -10 21 0 8 5 12 10 9 6
-3 10 -13 10 -21z m476 1 c7 -27 2 -64 -18 -138 l-13 -49 -80 4 c-102 4 -160
30 -160 70 l-1 27 61 -5 c33 -3 77 -12 98 -20 77 -29 94 -12 85 87 -4 36 -2
49 8 49 8 0 16 -11 20 -25z m-5022 -9 c9 8 17 12 17 7 6 -45 25 -77 62 -110
30 -26 33 -32 19 -38 -9 -3 -14 -3 -10 0 8 9 -34 51 -47 47 -5 -2 -7 -1 -3 3
7 7 -16 31 -77 82 -27 24 -28 24 -3 9 24 -14 28 -14 42 0z m3910 -2 c8 -22 8
-24 -6 -24 -6 0 -8 3 -5 7 4 3 2 12 -4 20 -7 8 -8 13 -1 13 5 0 13 -7 16 -16z
m866 12 c0 -2 -8 -10 -17 -17 -16 -13 -17 -12 -4 4 13 16 21 21 21 13z m92
-31 l4 -35 -44 0 c-41 0 -43 1 -40 27 3 27 9 31 69 42 4 0 9 -15 11 -34z m313
26 c3 -5 1 -12 -5 -16 -5 -3 -10 1 -10 9 0 18 6 21 15 7z m-630 -31 c-17 -19
-41 -18 -29 1 3 5 9 7 14 4 5 -3 11 -1 15 5 3 5 9 10 12 10 3 0 -2 -9 -12 -20z
m196 -33 c-10 -9 -11 -8 -5 6 3 10 9 15 12 12 3 -3 0 -11 -7 -18z m229 6 c-1
-24 -19 -35 -46 -27 l-29 8 28 4 c15 2 27 8 27 13 0 5 5 9 10 9 6 0 10 -3 10
-7z m-490 -57 c0 -2 -7 -7 -16 -10 -8 -3 -12 -2 -9 4 6 10 25 14 25 6z m-1110
-45 c0 -16 5 -42 10 -57 13 -32 6 -44 -9 -16 -17 31 -25 102 -12 102 6 0 11
-13 11 -29z m-117 -73 c-4 -7 -8 -19 -9 -26 -2 -12 -64 -88 -64 -77 0 3 -23
-21 -51 -52 -74 -84 -116 -123 -123 -116 -3 4 -6 2 -6 -4 0 -10 -46 -33 -77
-40 -7 -2 -21 -5 -30 -7 -10 -3 -24 -5 -31 -5 -7 -1 -10 -5 -7 -11 3 -5 0 -7
-8 -4 -8 3 -18 1 -22 -5 -3 -6 -15 -11 -26 -11 -13 0 -18 -4 -13 -12 4 -6 3
-8 -3 -5 -6 4 -26 -2 -47 -12 -20 -10 -36 -16 -36 -12 0 7 94 56 96 50 1 -2
11 4 21 14 11 9 23 14 26 10 4 -3 7 -1 7 6 0 7 4 10 8 7 5 -3 23 4 41 15 18
11 30 15 26 9 -14 -23 73 38 119 82 26 26 46 48 43 48 -8 0 157 169 166 169 5
1 5 -5 0 -11z m-2942 -35 c13 -16 12 -17 -3 -4 -10 7 -18 15 -18 17 0 8 8 3
21 -13z m50 -50 c13 -16 12 -17 -3 -4 -10 7 -18 15 -18 17 0 8 8 3 21 -13z
m39 -18 c7 -9 8 -15 2 -15 -5 0 -12 7 -16 15 -3 8 -4 15 -2 15 2 0 9 -7 16
-15z m258 -10 c-10 -10 -49 -14 -43 -4 4 5 16 9 27 9 12 0 19 -2 16 -5z m-64
-13 c3 -5 -1 -9 -9 -9 -8 0 -12 4 -9 9 3 4 7 8 9 8 2 0 6 -4 9 -8z m-90 -10
c3 -5 -1 -9 -9 -9 -8 0 -12 4 -9 9 3 4 7 8 9 8 2 0 6 -4 9 -8z m323 -56 c0 -8
-6 -12 -14 -9 -7 3 -10 9 -7 14 8 14 21 11 21 -5z m62 -60 c0 -6 -3 -5 -6 2
-2 6 -10 9 -15 6 -7 -4 -8 -2 -4 5 4 6 0 14 -8 17 -9 3 -16 11 -16 17 0 6 11
0 25 -13 14 -13 25 -28 24 -34z m156 -144 c-3 -3 -11 0 -18 7 -9 10 -8 11 6 5
10 -3 15 -9 12 -12z m65 -40 c0 -1 -9 2 -20 8 -11 6 -20 15 -20 20 0 6 9 2 20
-7 11 -10 20 -19 20 -21z m1580 27 c0 -12 -41 -18 -63 -8 -19 8 -18 9 6 4 15
-3 27 -2 27 3 0 5 7 9 15 9 8 0 15 -4 15 -8z m-120 -29 c0 -5 -5 -10 -11 -10
-5 0 -7 5 -4 10 3 6 8 10 11 10 2 0 4 -4 4 -10z m-1384 -27 c-6 -6 -36 9 -36
18 0 5 9 4 20 -3 10 -7 18 -14 16 -15z m1354 17 c0 -5 -4 -10 -10 -10 -5 0
-10 5 -10 10 0 6 5 10 10 10 6 0 10 -4 10 -10z m-1255 -32 l40 0 -34 -8 c-23
-5 -43 -4 -65 7 -22 10 -24 12 -6 7 14 -3 43 -6 65 -6z m1145 8 c0 -3 -4 -8
-10 -11 -5 -3 -10 -1 -10 4 0 6 5 11 10 11 6 0 10 -2 10 -4z m-1060 -16 c0 -5
-4 -10 -10 -10 -5 0 -10 5 -10 10 0 6 5 10 10 10 6 0 10 -4 10 -10z m60 6 c0
-2 -11 -6 -25 -8 -13 -3 -22 -1 -19 3 5 9 44 13 44 5z m950 0 c0 -2 -7 -7 -16
-10 -8 -3 -12 -2 -9 4 6 10 25 14 25 6z m-880 -22 c0 -2 -7 -4 -15 -4 -8 0
-15 4 -15 10 0 5 7 7 15 4 8 -4 15 -8 15 -10z m765 -14 c-3 -5 -12 -10 -18
-10 -7 0 -6 4 3 10 19 12 23 12 15 0z m-630 -28 c-3 -3 -11 0 -18 7 -9 10 -8
11 6 5 10 -3 15 -9 12 -12z m516 9 c-8 -5 -20 -7 -28 -4 -21 8 -15 13 15 13
20 0 23 -3 13 -9z m66 3 c-3 -3 -12 -4 -19 -1 -8 3 -5 6 6 6 11 1 17 -2 13 -5z
m-454 -11 c-7 -2 -19 -2 -25 0 -7 3 -2 5 12 5 14 0 19 -2 13 -5z m263 -2 c-3
-5 -15 -7 -26 -4 -28 7 -25 13 6 13 14 0 23 -4 20 -9z m51 3 c-3 -3 -12 -4
-19 -1 -8 3 -5 6 6 6 11 1 17 -2 13 -5z"/>
<path d="M4743 1352 c-23 -3 -33 -32 -11 -32 9 0 9 -3 0 -12 -20 -20 -13 -49
21 -84 l32 -34 113 0 c93 0 112 3 112 15 0 8 -6 15 -14 15 -9 0 -12 8 -8 25 3
19 9 24 22 20 10 -3 21 -2 24 3 3 6 -22 25 -57 43 -48 26 -78 34 -137 38 -41
3 -85 5 -97 3z m90 -63 c-13 -26 -14 -36 -4 -51 25 -39 -15 -35 -62 7 -27 24
-27 26 -11 50 13 19 25 25 54 25 l38 0 -15 -31z m100 13 c8 -7 18 -8 22 -4 5
4 5 1 1 -5 -4 -8 -1 -13 8 -13 12 0 12 -5 3 -29 -9 -26 -16 -30 -58 -33 -26
-1 -45 0 -42 5 2 4 0 7 -6 7 -10 0 -9 4 3 57 6 26 12 31 31 29 13 -1 30 -8 38
-14z"/>
<path d="M2978 4992 c-30 -9 -80 -43 -134 -88 -95 -80 -130 -96 -268 -120 -95
-16 -143 -33 -96 -34 48 0 229 39 267 58 21 11 69 45 107 76 37 31 76 61 85
65 9 5 66 13 126 17 l110 8 -55 17 c-67 21 -82 22 -142 1z"/>
<path d="M4130 4875 c0 -2 6 -8 13 -14 10 -8 14 -7 14 2 0 8 -6 14 -14 14 -7
0 -13 -1 -13 -2z"/>
<path d="M1455 4789 c-4 -6 -5 -12 -2 -15 2 -3 7 2 10 11 7 17 1 20 -8 4z"/>
<path d="M4203 4785 c0 -8 4 -12 9 -9 5 3 6 10 3 15 -9 13 -12 11 -12 -6z"/>
<path d="M3638 4741 c-38 -33 -67 -37 -159 -22 -25 4 -68 5 -95 2 -48 -6 -46
-7 56 -24 137 -22 147 -22 189 11 32 24 46 28 136 32 114 6 106 18 -16 27 -74
5 -76 5 -111 -26z"/>
<path d="M2174 4677 l-79 -74 -103 39 c-79 30 -122 40 -185 43 -45 3 -77 3
-72 1 6 -2 74 -23 153 -47 78 -23 142 -46 142 -50 0 -17 -80 -31 -217 -38
-128 -7 -147 -11 -200 -37 -53 -27 -62 -36 -110 -119 -43 -74 -59 -93 -90
-106 -37 -17 -36 -17 87 -13 l125 5 95 -48 c90 -45 99 -48 175 -48 74 0 88 4
189 48 145 65 193 74 303 60 49 -6 96 -15 107 -19 14 -5 17 -3 15 11 -7 33
-73 47 -199 43 -109 -4 -122 -7 -240 -52 -167 -64 -223 -66 -327 -13 -93 47
-152 61 -205 47 -22 -6 -42 -9 -45 -7 -2 3 35 45 84 95 104 106 119 112 278
112 102 0 115 2 170 30 58 28 264 209 239 210 -6 0 -46 -33 -90 -73z m-565
-209 c-2 -2 -20 -16 -38 -33 l-35 -30 25 32 c13 18 30 32 38 32 8 1 12 0 10
-1z"/>
<path d="M1123 4597 c0 -8 6 -14 14 -14 9 0 10 4 2 14 -6 7 -12 13 -14 13 -1
0 -2 -6 -2 -13z"/>
<path d="M2490 4592 c0 -5 48 -12 108 -15 136 -6 194 -26 275 -92 35 -29 73
-57 84 -64 29 -15 102 -14 193 3 243 46 351 29 517 -82 38 -25 57 -32 64 -25
14 14 -54 61 -168 116 -85 41 -92 42 -203 46 -63 2 -162 -3 -220 -10 -136 -18
-154 -15 -209 26 -25 20 -75 50 -111 68 -62 30 -72 32 -197 35 -82 3 -133 0
-133 -6z"/>
<path d="M1290 4488 l-35 -12 55 -7 c30 -3 72 -10 93 -14 24 -5 37 -4 37 4 0
27 -96 46 -150 29z"/>
<path d="M880 4466 c0 -2 8 -10 18 -17 15 -13 16 -12 3 4 -13 16 -21 21 -21
13z"/>
<path d="M3263 4385 c0 -8 4 -12 9 -9 5 3 6 10 3 15 -9 13 -12 11 -12 -6z"/>
<path d="M3129 4365 c-114 -42 -182 -96 -197 -157 -19 -77 -31 -132 -29 -135
2 -1 12 0 24 3 17 5 23 18 31 64 6 33 18 70 27 84 10 15 63 49 125 81 60 30
112 60 115 65 9 14 -53 11 -96 -5z"/>
<path d="M2536 4248 c3 -5 10 -6 15 -3 13 9 11 12 -6 12 -8 0 -12 -4 -9 -9z"/>
<path d="M736 4227 c3 -10 9 -15 12 -12 3 3 0 11 -7 18 -10 9 -11 8 -5 -6z"/>
<path d="M1244 4220 c-72 -17 -130 -74 -183 -178 -22 -42 -22 -72 -2 -72 5 0
23 24 40 53 34 60 78 105 147 150 72 48 71 65 -2 47z"/>
<path d="M3445 4155 c-22 -7 -71 -29 -110 -49 -72 -37 -120 -45 -157 -25 -19
10 -20 9 -13 -22 7 -30 85 -183 104 -202 19 -19 -11 120 -33 154 l-25 36 45 7
c24 3 83 21 129 41 66 27 99 35 146 35 81 0 169 -24 251 -68 37 -20 70 -33 74
-30 24 25 -82 89 -199 120 -82 21 -155 22 -212 3z"/>
<path d="M3286 4148 c3 -5 10 -6 15 -3 13 9 11 12 -6 12 -8 0 -12 -4 -9 -9z"/>
<path d="M2790 4110 c0 -13 20 -13 40 0 12 8 9 10 -12 10 -16 0 -28 -4 -28
-10z"/>
<path d="M4340 4111 c0 -5 8 -11 18 -14 9 -3 53 -21 97 -40 44 -19 102 -42
128 -52 59 -21 133 -79 170 -131 15 -22 40 -82 56 -133 l29 -93 -34 -14 c-40
-17 -109 -18 -153 -3 -45 16 -52 2 -8 -16 43 -18 101 -19 162 -4 39 10 46 9
73 -11 24 -18 33 -20 49 -10 15 10 25 9 51 -4 35 -18 62 -21 62 -6 0 15 -45
41 -107 60 -45 14 -60 23 -67 44 -6 14 -7 28 -4 32 8 7 108 -37 149 -67 32
-22 45 -20 35 6 -7 18 -80 52 -147 67 -44 10 -47 13 -52 49 -3 21 -19 61 -35
88 l-31 49 22 15 c12 8 58 26 103 41 47 15 91 37 104 51 28 30 21 32 -22 5
-18 -11 -49 -20 -69 -20 -47 0 -98 -21 -128 -54 l-24 -25 -34 29 c-43 38 -79
56 -178 90 -44 16 -110 40 -147 54 -38 14 -68 22 -68 17z"/>
<path d="M4889 4112 c9 -7 10 -11 2 -15 -7 -4 -8 -5 0 -3 15 2 13 20 -3 24
-10 3 -10 2 1 -6z"/>
<path d="M2471 4075 c-79 -46 -171 -138 -171 -171 0 -26 18 -14 99 62 l81 76
125 8 c69 4 127 9 130 11 2 3 0 11 -5 19 -7 11 -35 16 -112 18 -95 2 -106 1
-147 -23z"/>
<path d="M870 4070 c-60 -24 -35 -35 63 -25 78 7 104 16 93 34 -11 17 -106 12
-156 -9z"/>
<path d="M2366 4071 c-4 -5 -2 -12 3 -15 5 -4 12 -2 15 3 4 5 2 12 -3 15 -5 4
-12 2 -15 -3z"/>
<path d="M5140 4046 c0 -2 8 -10 18 -17 15 -13 16 -12 3 4 -13 16 -21 21 -21
13z"/>
<path d="M868 3979 c-31 -48 -36 -95 -13 -139 14 -27 13 -32 -24 -102 -21 -40
-42 -89 -45 -108 -7 -32 -4 -29 34 29 56 86 58 94 54 176 -2 46 2 84 12 111
25 65 14 83 -18 33z"/>
<path d="M2650 3993 c0 -52 75 -226 121 -282 36 -44 31 -14 -9 56 -38 66 -61
123 -79 192 -7 30 -33 57 -33 34z"/>
<path d="M4769 3983 c-13 -16 -12 -17 4 -4 16 13 21 21 13 21 -2 0 -10 -8 -17
-17z"/>
<path d="M5055 3941 c-3 -5 -2 -12 3 -15 5 -3 9 1 9 9 0 17 -3 19 -12 6z"/>
<path d="M2254 3879 c-3 -6 -2 -15 3 -20 5 -5 9 -1 9 11 0 23 -2 24 -12 9z"/>
<path d="M1202 3834 c-46 -13 -104 -35 -130 -48 -51 -26 -125 -99 -137 -135
-11 -37 3 -36 18 1 34 81 145 140 342 183 109 23 110 23 50 24 -35 0 -94 -10
-143 -25z"/>
<path d="M2285 3824 c-34 -21 -48 -24 -90 -19 -27 4 -54 10 -60 15 -14 12 -35
-7 -35 -31 0 -9 -7 -33 -15 -52 -9 -22 -15 -68 -15 -115 0 -65 7 -97 41 -197
33 -94 43 -139 47 -208 4 -72 7 -87 19 -83 8 3 22 6 30 6 14 0 15 11 10 74 -5
55 -18 103 -49 178 l-42 103 -1 145 0 145 91 0 c91 0 124 11 124 41 0 23 -15
23 -55 -2z"/>
<path d="M1459 3823 c-13 -16 -12 -17 4 -4 9 7 17 15 17 17 0 8 -8 3 -21 -13z"/>
<path d="M2776 3828 c3 -5 10 -6 15 -3 13 9 11 12 -6 12 -8 0 -12 -4 -9 -9z"/>
<path d="M1490 3780 c-55 -29 -108 -35 -130 -15 -42 38 -109 -9 -160 -114 -32
-68 -38 -73 -106 -111 -39 -21 -75 -47 -78 -56 -4 -10 -18 -70 -31 -133 -27
-129 -30 -133 -127 -182 -109 -55 -174 -134 -202 -247 -9 -35 -16 -67 -16 -70
0 -4 23 39 50 94 57 118 79 140 207 201 107 52 111 57 138 223 10 58 21 113
27 122 5 10 31 30 57 46 27 15 67 50 89 77 22 28 56 65 75 84 33 31 42 34 94
34 32 0 80 -4 106 -8 44 -7 50 -5 77 20 27 26 28 29 12 41 -23 18 -41 17 -82
-6z"/>
<path d="M2383 3775 c0 -8 4 -12 9 -9 5 3 6 10 3 15 -9 13 -12 11 -12 -6z"/>
<path d="M3832 3768 c-12 -12 -5 -38 10 -38 21 0 94 -40 116 -63 13 -14 31
-40 40 -58 19 -36 20 -36 107 -74 33 -15 68 -30 77 -36 23 -12 45 -12 53 2 12
19 -28 51 -112 90 -46 22 -83 43 -83 49 0 5 -14 30 -32 55 -24 34 -42 48 -73
56 -22 6 -52 15 -66 19 -16 5 -31 4 -37 -2z"/>
<path d="M5148 3669 c-4 -116 12 -148 28 -51 7 47 -3 132 -16 132 -5 0 -10
-36 -12 -81z"/>
<path d="M3123 3726 c0 -15 22 -15 34 0 4 5 4 6 -1 2 -5 -4 -14 -3 -21 2 -8 7
-12 5 -12 -4z"/>
<path d="M3185 3710 c-3 -5 5 -31 18 -57 34 -68 57 -132 61 -173 2 -19 4 -38
5 -41 2 -14 42 -17 48 -3 8 23 -17 111 -44 150 -13 20 -36 59 -50 85 -27 52
-29 54 -38 39z"/>
<path d="M4566 3648 c3 -5 10 -6 15 -3 13 9 11 12 -6 12 -8 0 -12 -4 -9 -9z"/>
<path d="M837 3631 c-10 -14 -10 -14 4 -4 9 7 18 10 21 7 3 -3 8 -1 12 4 9 16
-24 9 -37 -7z"/>
<path d="M2704 3570 c-27 -28 -70 -83 -96 -123 l-48 -72 0 -102 0 -103 35 0
c34 0 35 1 28 28 -17 61 -8 155 21 219 36 79 66 109 95 94 18 -10 21 -8 27 14
3 14 1 31 -6 39 -8 11 -9 20 0 35 19 36 -5 23 -56 -29z"/>
<path d="M3339 3563 c-13 -16 -12 -17 4 -4 16 13 21 21 13 21 -2 0 -10 -8 -17
-17z"/>
<path d="M1911 3507 c-15 -74 -25 -304 -12 -267 5 14 9 51 10 83 1 32 6 67 12
78 14 28 24 155 12 162 -5 3 -15 -21 -22 -56z"/>
<path d="M5103 3525 c8 -16 22 -55 32 -85 10 -30 29 -75 44 -100 22 -39 26
-60 31 -165 8 -162 26 -201 154 -331 53 -54 96 -93 96 -87 0 6 -33 45 -74 87
l-73 76 35 92 c26 70 36 117 42 188 4 52 6 96 5 98 -3 4 -32 -93 -71 -241 -19
-70 -31 -102 -35 -90 -16 44 -31 137 -38 243 -10 134 -28 186 -85 251 -23 26
-49 57 -59 70 l-18 24 14 -30z"/>
<path d="M406 3503 c-59 -69 -55 -137 15 -269 43 -79 49 -98 49 -150 0 -32 -7
-83 -14 -113 -11 -41 -12 -59 -3 -80 l11 -26 4 30 c2 17 9 65 16 107 17 98 9
145 -44 244 -47 88 -49 121 -19 219 11 37 19 68 17 69 -2 2 -16 -12 -32 -31z"/>
<path d="M4950 3536 c0 -2 7 -7 16 -10 8 -3 12 -2 9 4 -6 10 -25 14 -25 6z"/>
<path d="M2565 3491 c-3 -5 -2 -12 3 -15 5 -3 9 1 9 9 0 17 -3 19 -12 6z"/>
<path d="M1094 3376 c-9 -37 12 -159 35 -204 26 -52 42 -64 161 -120 58 -28
117 -63 132 -79 15 -16 35 -58 48 -102 23 -80 58 -125 104 -137 27 -7 56 0 56
13 0 5 -20 19 -46 32 -51 28 -60 40 -80 119 -22 85 -76 134 -199 182 -74 28
-123 64 -136 97 -5 14 -18 66 -29 116 -22 101 -35 125 -46 83z"/>
<path d="M1179 3353 c-13 -16 -12 -17 4 -4 9 7 17 15 17 17 0 8 -8 3 -21 -13z"/>
<path d="M2974 3348 c-4 -7 -4 -10 1 -6 4 4 15 2 24 -5 14 -11 14 -10 2 6 -16
20 -18 21 -27 5z"/>
<path d="M2944 3293 c2 -10 8 -38 11 -63 4 -25 12 -51 17 -57 6 -7 10 -51 9
-98 l-2 -85 31 0 30 0 0 109 c0 60 -4 111 -8 113 -4 2 -20 24 -35 51 -27 46
-64 66 -53 30z m61 -93 c3 -5 1 -10 -4 -10 -6 0 -11 5 -11 10 0 6 2 10 4 10 3
0 8 -4 11 -10z"/>
<path d="M3421 3193 c-34 -86 -56 -233 -35 -233 5 0 19 -3 32 -6 21 -6 22 -4
22 63 0 65 31 205 50 229 10 11 -6 34 -24 34 -6 0 -26 -39 -45 -87z"/>
<path d="M1559 3222 c-115 -30 -153 -72 -137 -149 5 -24 12 -43 16 -43 4 0 23
28 42 62 34 59 72 88 115 88 28 0 89 30 79 39 -19 18 -51 19 -115 3z m-98
-115 c-13 -13 -15 1 -4 30 7 17 8 17 11 -1 2 -10 -1 -23 -7 -29z"/>
<path d="M4471 3173 c-5 -21 -15 -66 -22 -100 -17 -91 -38 -119 -117 -154 -37
-16 -88 -41 -115 -54 -26 -14 -49 -25 -51 -25 -3 0 0 15 5 32 15 54 11 77 -24
114 -27 29 -47 40 -106 54 -72 18 -121 14 -121 -9 0 -10 45 -26 103 -37 41 -7
82 -49 117 -118 l19 -39 -29 -41 c-16 -23 -34 -64 -40 -92 -13 -58 -36 -88
-85 -109 -39 -15 -44 -29 -18 -44 22 -12 86 19 107 52 9 12 24 52 36 89 29 95
55 120 184 182 61 30 119 62 128 73 51 56 88 263 48 263 -5 0 -14 -17 -19 -37z
m-325 -240 c-3 -4 -6 -1 -6 6 0 7 -5 9 -12 5 -7 -4 -8 -3 -4 4 4 7 2 12 -4 12
-6 0 -8 5 -5 11 5 6 13 2 22 -11 8 -12 12 -24 9 -27z"/>
<path d="M1933 3108 c-40 -46 -46 -79 -26 -142 10 -32 23 -56 28 -54 10 3 45
155 45 196 0 12 -6 22 -13 22 -8 0 -23 -10 -34 -22z m11 -47 c3 -5 -2 -15 -12
-22 -15 -12 -16 -12 -5 2 7 9 10 19 6 22 -3 4 -4 7 0 7 3 0 8 -4 11 -9z"/>
<path d="M1846 3107 c3 -10 9 -15 12 -12 3 3 0 11 -7 18 -10 9 -11 8 -5 -6z"/>
<path d="M1123 3083 c0 -9 4 -10 14 -2 7 6 13 12 13 14 0 1 -6 2 -13 2 -8 0
-14 -6 -14 -14z"/>
<path d="M1126 3048 c3 -5 10 -6 15 -3 13 9 11 12 -6 12 -8 0 -12 -4 -9 -9z"/>
<path d="M769 3003 c-13 -16 -12 -17 4 -4 9 7 17 15 17 17 0 8 -8 3 -21 -13z"/>
<path d="M3618 2938 c-5 -13 10 -97 32 -177 8 -32 14 -41 20 -30 17 27 32 110
26 143 -10 53 -66 99 -78 64z m42 -48 c0 -5 -2 -10 -4 -10 -3 0 -8 5 -11 10
-3 6 -1 10 4 10 6 0 11 -4 11 -10z"/>
<path d="M2064 2886 c-23 -23 -32 -40 -28 -51 6 -14 9 -14 28 4 27 25 69 41
110 41 39 0 50 8 35 27 -7 8 -32 13 -61 13 -44 0 -54 -4 -84 -34z"/>
<path d="M1246 2868 c-95 -145 -69 -251 105 -424 54 -54 101 -95 105 -92 3 4
-28 43 -69 87 -77 82 -121 139 -151 199 -17 32 -16 36 13 125 17 51 31 100 31
110 0 24 -17 21 -34 -5z"/>
<path d="M932 2748 c-11 -13 -36 -54 -54 -93 l-33 -70 2 -169 c3 -195 -6 -231
-74 -276 -94 -63 -128 -107 -141 -182 l-7 -40 -63 97 c-35 53 -68 110 -72 126
-9 31 1 79 40 183 19 53 20 67 11 119 -6 32 -22 80 -37 105 -15 26 -43 75 -62
110 -19 35 -36 61 -39 59 -6 -7 20 -64 61 -132 l36 -59 -75 -69 c-55 -51 -82
-84 -105 -132 -16 -34 -30 -66 -30 -69 0 -6 112 119 188 209 l34 40 -4 -85
c-4 -66 -10 -96 -30 -135 -37 -72 -50 -129 -42 -183 6 -43 15 -55 95 -132 64
-62 89 -93 89 -110 1 -35 13 -12 40 75 28 88 55 124 130 175 45 31 64 52 86
95 25 51 26 62 20 133 -22 259 -23 256 49 368 19 30 35 57 35 59 0 13 -29 2
-48 -17z m-428 -697 c10 -10 14 -21 9 -24 -4 -3 -14 1 -21 9 -7 8 -9 14 -5 14
4 0 1 5 -7 10 -8 5 -10 10 -4 10 6 0 19 -9 28 -19z"/>
<path d="M4185 2761 c-3 -5 -2 -12 3 -15 5 -3 9 1 9 9 0 17 -3 19 -12 6z"/>
<path d="M3390 2725 c-13 -15 -9 -17 71 -30 21 -3 48 -14 62 -25 31 -25 37
-25 37 -2 -1 25 -22 50 -54 62 -40 15 -102 12 -116 -5z"/>
<path d="M4322 2702 c-8 -6 -2 -37 22 -114 l34 -106 -45 -69 c-25 -37 -78
-102 -119 -144 -66 -68 -92 -107 -65 -97 21 7 169 157 198 199 69 103 78 172
34 265 -31 66 -41 77 -59 66z"/>
<path d="M2760 2625 c-41 -34 -47 -36 -89 -30 -74 11 -218 15 -201 5 21 -12
174 -40 218 -40 23 0 47 9 71 28 34 25 43 27 132 27 73 0 92 3 80 11 -20 14
-59 23 -121 30 -43 5 -50 2 -90 -31z"/>
<path d="M3400 2656 c0 -2 7 -7 16 -10 8 -3 12 -2 9 4 -6 10 -25 14 -25 6z"/>
<path d="M500 2637 c0 -2 6 -10 14 -16 11 -9 16 -9 22 1 4 7 4 10 -1 6 -4 -4
-14 -3 -22 3 -7 6 -13 9 -13 6z"/>
<path d="M3016 2618 c3 -5 10 -6 15 -3 13 9 11 12 -6 12 -8 0 -12 -4 -9 -9z"/>
<path d="M1861 2591 c-6 -11 -11 -32 -11 -48 0 -32 40 -122 62 -141 14 -11 14
-17 2 -52 -14 -42 -10 -70 11 -70 16 0 38 27 31 38 -3 5 1 18 9 28 20 27 18
62 -4 91 -11 13 -17 31 -14 40 5 12 3 14 -6 8 -18 -11 -31 12 -31 56 0 23 -7
42 -19 53 -19 17 -20 17 -30 -3z"/>
<path d="M5305 2500 c-5 -13 -8 -65 -14 -212 -1 -15 -7 -33 -13 -40 -14 -15
-33 -65 -43 -118 -4 -19 -12 -41 -18 -48 -7 -9 -7 -16 0 -23 19 -19 101 114
117 191 19 93 13 200 -14 250 -8 13 -9 13 -15 0z"/>
<path d="M3701 2401 c-12 -12 -21 -32 -21 -45 0 -13 -14 -50 -30 -82 -33 -61
-33 -86 -2 -150 14 -31 15 -31 42 -16 l26 15 -19 36 -20 36 33 52 c39 62 52
141 27 162 -13 10 -19 9 -36 -8z m12 -81 c-3 -11 -9 -20 -15 -20 -5 0 -4 9 2
20 6 11 12 20 14 20 2 0 2 -9 -1 -20z m-23 -64 c0 -2 -7 -7 -16 -10 -8 -3 -12
-2 -9 4 6 10 25 14 25 6z"/>
<path d="M2287 2312 c-4 -5 34 -14 93 -21 145 -16 188 -36 284 -130 45 -44 95
-83 110 -87 16 -4 99 -2 186 5 176 13 275 4 340 -29 21 -11 71 -46 111 -78 66
-54 75 -58 100 -49 l27 11 -42 37 c-22 21 -46 43 -53 48 -15 13 -75 48 -128
74 -22 11 -49 24 -60 30 -31 16 -241 21 -353 8 -118 -14 -118 -14 -207 67 -33
30 -89 69 -125 86 -57 27 -77 31 -171 34 -62 3 -109 0 -112 -6z"/>
<path d="M526 2151 c-3 -5 2 -15 12 -22 15 -12 16 -12 5 2 -7 9 -10 19 -6 22
3 4 4 7 0 7 -3 0 -8 -4 -11 -9z"/>
<path d="M663 2143 c4 -3 1 -13 -6 -22 -11 -14 -10 -14 5 -2 16 12 16 31 1 31
-4 0 -3 -3 0 -7z"/>
<path d="M836 2091 c-3 -4 4 -7 14 -6 27 2 33 10 10 12 -11 1 -22 -2 -24 -6z"/>
<path d="M1278 2038 c-32 -11 -58 -23 -58 -27 0 -3 30 -4 67 -3 86 5 125 -7
207 -63 119 -82 202 -84 371 -11 138 60 210 68 330 37 60 -15 81 -17 87 -8 12
20 -59 55 -131 64 -101 12 -183 6 -247 -18 -193 -70 -197 -71 -260 -67 -49 3
-73 11 -116 38 -126 80 -163 89 -250 58z"/>
<path d="M2885 2005 c-71 -29 -130 -69 -158 -107 -19 -26 -61 -187 -51 -197
15 -15 40 24 54 83 21 86 43 108 172 171 56 28 104 56 106 63 6 20 -58 14
-123 -13z"/>
<path d="M410 2003 c0 -6 8 -17 18 -24 16 -13 16 -13 2 6 -8 11 -16 22 -17 24
-2 2 -3 0 -3 -6z"/>
<path d="M407 1922 c-32 -35 -62 -133 -39 -131 7 0 72 128 72 142 0 13 -16 8
-33 -11z"/>
<path d="M4800 1824 c-52 -7 -104 -13 -114 -13 -13 -1 -17 -4 -10 -11 6 -6 51
-4 129 5 166 21 276 19 349 -5 48 -16 86 -20 201 -20 139 0 142 0 188 -30 25
-16 49 -25 52 -20 3 5 -16 21 -42 37 -44 26 -56 27 -207 33 -113 5 -175 11
-206 23 -55 20 -201 21 -340 1z"/>
<path d="M3265 1770 c-59 -4 -83 -12 -148 -49 -81 -45 -86 -46 -176 -24 -23 6
-24 4 -18 -33 3 -21 28 -86 56 -144 l50 -105 1 68 c0 51 -6 79 -24 117 l-24
50 44 0 c43 0 172 45 186 65 13 18 121 10 198 -15 83 -26 106 -38 164 -87 45
-38 70 -31 42 12 -20 31 -78 68 -171 110 -87 40 -94 41 -180 35z"/>
<path d="M2185 1750 c-4 -6 -10 -8 -14 -6 -4 3 -8 -1 -8 -9 0 -13 4 -12 19 2
18 16 22 23 14 23 -3 0 -8 -5 -11 -10z"/>
<path d="M2516 1752 c-3 -5 1 -9 9 -9 8 0 12 4 9 9 -3 4 -7 8 -9 8 -2 0 -6 -4
-9 -8z"/>
<path d="M642 1720 c-19 -52 6 -110 82 -188 57 -60 103 -89 117 -75 6 6 -17
37 -58 79 -59 59 -72 80 -93 142 -14 39 -28 72 -31 72 -4 0 -12 -13 -17 -30z"/>
<path d="M2235 1732 c-72 -35 -185 -150 -185 -189 0 -26 24 -12 102 65 l79 77
131 5 c88 3 133 9 135 17 7 21 -40 36 -132 40 -74 3 -97 0 -130 -15z"/>
<path d="M4900 1715 c-205 -58 -237 -65 -297 -65 -35 0 -63 -4 -63 -10 0 -17
121 -11 200 11 288 78 292 78 407 40 41 -13 103 -21 208 -26 83 -4 156 -12
163 -17 7 -6 15 -8 19 -4 16 16 -36 35 -97 36 -139 1 -247 13 -294 31 -75 30
-148 31 -246 4z"/>
<path d="M2410 1620 c0 -45 26 -165 47 -215 27 -65 83 -159 90 -151 3 2 -14
51 -37 108 -23 56 -50 139 -59 182 -10 44 -23 82 -29 84 -7 2 -12 -1 -12 -8z"/>
<path d="M4690 1576 c7 -7 13 -7 20 0 6 6 3 10 -10 10 -13 0 -16 -4 -10 -10z"/>
<path d="M4785 1550 c-83 -21 -121 -35 -130 -49 -9 -16 11 -13 45 4 53 27 177
47 271 43 66 -2 89 0 89 10 0 19 -189 14 -275 -8z"/>
<path d="M5490 1560 c-58 -7 -100 -24 -100 -40 0 -5 15 -3 33 4 17 8 59 17 93
21 l61 7 53 -46 c29 -25 57 -43 63 -39 5 3 -1 14 -14 25 -69 55 -104 78 -118
77 -9 -1 -41 -5 -71 -9z"/>
<path d="M2895 1539 c-4 -6 -5 -12 -2 -15 2 -3 7 2 10 11 7 17 1 20 -8 4z"/>
<path d="M2035 1460 c-13 -15 -31 -20 -67 -20 -26 0 -48 -4 -48 -9 0 -14 111
-30 137 -20 29 11 46 42 31 57 -17 17 -32 15 -53 -8z"/>
<path d="M5720 1466 c0 -2 8 -10 18 -17 15 -13 16 -12 3 4 -13 16 -21 21 -21
13z"/>
<path d="M5416 1444 c-9 -24 -7 -104 3 -104 5 0 11 27 13 60 3 58 -4 77 -16
44z"/>
<path d="M1166 1348 c3 -5 10 -6 15 -3 13 9 11 12 -6 12 -8 0 -12 -4 -9 -9z"/>
<path d="M4130 1293 c-14 -18 -20 -38 -18 -60 3 -38 22 -46 26 -11 6 49 13 69
23 66 14 -5 41 -68 29 -68 -5 0 -21 -17 -35 -37 -28 -42 -34 -113 -12 -132 8
-6 12 -23 9 -39 -3 -23 3 -35 32 -60 37 -33 60 -39 85 -23 18 11 5 32 -15 24
-22 -8 -58 14 -78 48 -17 29 -17 29 8 29 19 0 26 -5 26 -19 0 -31 19 -35 26
-6 8 33 -11 55 -46 55 -43 0 -49 59 -10 110 23 30 30 24 37 -29 4 -25 11 -41
19 -41 19 0 17 26 -7 106 -35 117 -59 138 -99 87z"/>
<path d="M4417 1219 c7 -7 15 -10 18 -7 3 3 -2 9 -12 12 -14 6 -15 5 -6 -5z"/>
<path d="M5880 1186 c0 -2 8 -10 18 -17 15 -13 16 -12 3 4 -13 16 -21 21 -21
13z"/>
<path d="M4272 1099 c-7 -11 -11 -23 -9 -25 7 -7 29 24 25 36 -2 6 -9 1 -16
-11z"/>
<path d="M3347 1025 c-40 -15 -66 -33 -148 -103 -81 -69 -119 -76 -227 -42
-135 42 -170 35 -319 -67 -62 -42 -111 -79 -108 -81 6 -6 80 38 135 81 l45 34
75 -68 c49 -44 100 -79 144 -99 38 -17 70 -29 72 -27 2 2 -56 48 -129 103
l-132 99 79 3 c64 2 93 -2 152 -23 120 -41 205 -29 252 34 62 84 116 142 138
147 13 3 24 10 24 15 0 11 -7 11 -53 -6z m-121 -120 c-11 -8 -16 -15 -10 -15
13 -1 -36 -40 -50 -40 -6 0 3 9 19 20 17 11 26 20 20 20 -5 0 -1 7 9 15 11 8
22 15 25 15 3 0 -3 -7 -13 -15z"/>
<path d="M3146 948 c3 -5 10 -6 15 -3 13 9 11 12 -6 12 -8 0 -12 -4 -9 -9z"/>
<path d="M967 907 c-3 -8 1 -14 8 -14 7 0 11 6 8 14 -3 7 -6 13 -8 13 -2 0 -5
-6 -8 -13z"/>
<path d="M5080 851 c-33 -6 -35 -9 -38 -49 -3 -36 1 -47 27 -72 33 -33 91 -43
91 -15 0 10 -10 15 -29 15 -22 0 -36 8 -51 30 -28 39 -23 51 24 64 21 6 38 16
38 21 -1 13 -18 14 -62 6z"/>
<path d="M3316 831 c-15 -24 91 -76 133 -66 23 6 19 10 -48 41 -83 38 -78 37
-85 25z"/>
<path d="M2936 781 c-4 -5 -2 -12 3 -15 5 -4 12 -2 15 3 4 5 2 12 -3 15 -5 4
-12 2 -15 -3z"/>
<path d="M2760 750 c-9 -6 -10 -10 -3 -10 6 0 15 5 18 10 8 12 4 12 -15 0z"/>
<path d="M5228 749 c-29 -17 -20 -28 20 -25 23 2 37 9 37 17 0 17 -34 22 -57
8z"/>
<path d="M3729 673 c-13 -16 -12 -17 4 -4 16 13 21 21 13 21 -2 0 -10 -8 -17
-17z"/>
<path d="M5175 661 c-3 -5 -2 -12 3 -15 5 -3 9 1 9 9 0 17 -3 19 -12 6z"/>
<path d="M2056 648 c3 -5 10 -6 15 -3 13 9 11 12 -6 12 -8 0 -12 -4 -9 -9z"/>
<path d="M4446 588 c13 -52 6 -178 -12 -206 -22 -34 -11 -39 15 -6 17 22 21
40 21 104 0 89 -8 140 -22 140 -7 0 -7 -12 -2 -32z"/>
<path d="M4992 532 c-29 -22 -20 -32 24 -25 19 3 61 -2 94 -11 40 -11 107 -18
201 -20 123 -3 144 -5 155 -21 13 -17 14 -17 20 0 16 41 -3 47 -166 51 -118 3
-172 8 -225 24 -83 24 -75 24 -103 2z"/>
<path d="M5573 385 c0 -8 4 -12 9 -9 5 3 6 10 3 15 -9 13 -12 11 -12 -6z"/>
<path d="M4402 177 c-34 -11 -50 -27 -106 -112 -22 -33 -40 -50 -54 -50 -11 0
-24 -3 -28 -7 -4 -5 9 -8 29 -8 41 0 55 12 102 85 26 42 42 56 76 67 44 15 65
39 32 37 -10 -1 -33 -6 -51 -12z"/>
<path d="M5034 93 c11 -45 40 -78 72 -81 l29 -3 -32 20 c-18 11 -39 36 -47 56
-18 42 -31 46 -22 8z"/>
</g>
</svg>
